<svg xmlns="http://www.w3.org/2000/svg" viewBox="0 0 455.731 455.731"><path d="M200.399 337.104c0 .56 0 1.26-.31 1.65-2.1 2.71-4.6 4.97-7.88 6.17-2.85 1.04-5.12-.23-5.72-3.19-.24-1.17-.25-2.4-.25-3.6-.01-22.05-.07-67.26-.1-67.81h-16.27c0 .61-.02 63.59.02 75.49.01 3.22.35 6.42 1.69 9.41 1.44 3.24 3.83 5.29 7.39 5.88 2.61.45 5.16.16 7.64-.69 5.08-1.75 9.06-5.05 12.57-9.01.31-.35.64-.69 1.23-1.32v9.88h16.31v-43.23-46.55l-16.32.04v66.88zM277.509 277.334c-3.44-7.33-10.67-9.27-16.94-7.7-3.8.96-6.88 3.15-9.41 5.98-.84.95-1.76 2.79-1.76 2.79v-40.01h-16.34v121.55h16.34v-6.82s1.16 1.23 1.58 1.68c3.75 4.07 8.3 6.3 13.91 6.35 6.9.07 11.7-3.27 13.88-9.83 1.01-3.05 1.34-6.19 1.35-9.37.02-16.99.02-33.98-.01-50.97 0-4.7-.57-9.319-2.6-13.65zm-14.22 62.591c0 .91-.11 1.83-.3 2.72-.75 3.56-3.46 5.16-7.3 4.37-2.33-.48-4.15-1.82-5.71-3.51-.07-.08-.53-.7-.53-.7v-1.33l-.04-53.97s.35-1 1.12-1.67c1.92-1.7 4.04-2.77 6.69-2.51 2.26.22 4.06 1.26 4.9 3.35.63 1.59 1.13 3.36 1.14 5.06.08 16.059.05 32.119.03 48.19zM218.753 171.39a6.916 6.916 0 0 0 6.909-6.909V115.73c0-3.81-3.1-6.909-6.909-6.909s-6.909 3.1-6.909 6.909v48.751c-.001 3.809 3.099 6.909 6.909 6.909zM169.909 238.405h-56.6v17.419h19.07v104.131h18.42V255.784h19.11zM324.189 328.084v11.53c0 4.03-3.26 7.29-7.28 7.29-4.03 0-7.29-3.26-7.29-7.29v-22.43h31.29s.18-15.65.05-22.75c-.05-3.03-.28-6.1-.9-9.06-1.62-7.68-5.75-13.47-13.48-16.01-2.27-.75-4.71-1.14-7.1-1.29-7.95-.51-14.91 1.76-20.35 7.85-4.77 5.33-6.43 11.75-6.44 18.71-.03 13.31-.09 26.63.04 39.94.04 3.39.42 6.85 1.19 10.15 1.66 7.09 5.53 12.66 12.36 15.74 4.99 2.26 10.26 2.37 15.58 1.59 8.58-1.26 14.43-5.86 17.26-14.15 2.13-6.21 1.88-19.82 1.88-19.82h-16.81zm-14.57-37.399c0-4.02 3.26-7.29 7.29-7.29 4.02 0 7.28 3.27 7.28 7.29v12.59h-14.57v-12.59z"/><path d="M0 0v455.731h455.731V0H0zm256.735 94.99h16.596v68.821c0 .912.073 1.834.233 2.728.503 2.836 2.6 4.171 5.331 3.224 3.329-1.152 5.87-3.457 8.024-6.173.306-.388.25-1.112.25-1.681V94.99h16.717l-.005 90.244H287.16l.02-9.695c-1.849 1.821-3.427 3.522-5.161 5.05-3.074 2.708-6.556 4.727-10.629 5.524-6.253 1.222-11.579-.754-13.573-7.23-.664-2.157-1.065-4.482-1.082-6.734V94.99zm-37.982-2.259c13.224 0 23.944 10.72 23.944 23.944v46.859c0 13.224-10.72 23.944-23.944 23.944-13.224 0-23.944-10.72-23.944-23.944v-46.859c-.001-13.224 10.719-23.944 23.944-23.944zm-64.41-29.661s7.605 32.301 11.235 47.602h.006c3.63-15.301 11.235-47.602 11.235-47.602h19.029s-14.62 48.487-21.158 70.111a8.58 8.58 0 0 0-.343 2.45l.008 49.584h-17.547l.007-49.584c0-.819-.108-1.668-.343-2.45-6.538-21.624-21.158-70.111-21.158-70.111h19.029zm209.236 287.795c0 22.18-17.72 40.3-39.89 40.77a4468.85 4468.85 0 0 1-191.65 0c-22.16-.47-39.88-18.59-39.88-40.77v-99.76c0-22.17 17.72-40.29 39.88-40.76a4468.85 4468.85 0 0 1 191.65 0c22.17.47 39.89 18.59 39.89 40.76v99.76z"/></svg>